# File created by Blade
# Date/Time:  Tue Sep 30 19:09:21 2014
#---------------------------------------------------------
:version 1.10
:name HOM
:units
  mass 1.0
  length 1.000000
  angle deg
:documentation
     Acclaim Skeleton File
:root
   axis xyz
   order TX TY TZ RX RY RZ
   position 0.000000 0.000000 0.000000
   orientation 0 0 0
:bonedata
   begin
      id 1
      name Spine_dum
      direction 0.000000 1.000000 0.000000
      length 7.508948
      axis 0.0 0.0 0.0 xyz
   end
   begin
      id 2
      name LeftUpLeg_dum
      direction 1.000000 0.000000 0.000000
      length 3.000560
      axis 0.0 0.0 0.0 xyz
   end
   begin
      id 3
      name RightUpLeg_dum
      direction -1.000000 0.000000 0.000000
      length 3.000560
      axis 0.0 0.0 0.0 xyz
   end
   begin
      id 4
      name Spine
      direction 0.000000 1.000000 0.000000
      length 0.000000
      axis 0.0 0.0 0.0 xyz
      dof rx ry rz
   end
   begin
      id 5
      name Spine_dum1
      direction 0.000000 1.000000 0.000000
      length 13.861154
      axis 0.0 0.0 0.0 xyz
   end
   begin
      id 6
      name Spine_dum2
      direction 0.000000 1.000000 0.000000
      length 8.204781
      axis 0.0 0.0 0.0 xyz
   end
   begin
      id 7
      name Spine_dum3
      direction 0.000000 1.000000 0.000000
      length 8.204781
      axis 0.0 0.0 0.0 xyz
   end
   begin
      id 8
      name Head
      direction 0.000000 1.000000 0.000000
      length 4.527550
      axis 0.0 0.0 0.0 xyz
      dof rx ry rz
   end
   begin
      id 9
      name LeftShoulder
      direction 1.000000 0.000000 0.000000
      length 6.635956
      axis 0.0 0.0 -90.0 xyz
      dof rx ry rz
   end
   begin
      id 10
      name LeftArm
      direction 1.000000 0.000000 0.000000
      length 10.274218
      axis 0.0 0.0 -90.0 xyz
      dof rx ry rz
   end
   begin
      id 11
      name LeftForeArm
      direction 1.000000 0.000000 0.000000
      length 8.522147
      axis 0.0 0.0 -90.0 xyz
      dof ry rz rx
   end
   begin
      id 12
      name LeftHand
      direction 0.000000 0.000000 0.000000
      length 0.000000
      axis 0.0 0.0 -90.0 xyz
      dof rx ry rz
   end
   begin
      id 13
      name LeftHand_dum1
      direction 0.000000 0.000000 0.000000
      length 0.000000
      axis 0.0 0.0 -90.0 xyz
   end
   begin
      id 14
      name LeftHand_dum2
      direction 1.000000 0.000000 0.000000
      length 3.937000
      axis 0.0 0.0 -90.0 xyz
   end
   begin
      id 15
      name LeftHandThumb1
      direction 0.000000 0.000000 1.000000
      length 3.937000
      axis 0.0 0.0 -90.0 xyz
      dof rx rz ry
   end
   begin
      id 16
      name RightShoulder
      direction -1.000000 0.000000 0.000000
      length 6.635956
      axis 0.0 0.0 90.0 xyz
      dof rx ry rz
   end
   begin
      id 17
      name RightArm
      direction -1.000000 0.000000 0.000000
      length 10.274218
      axis 0.0 0.0 90.0 xyz
      dof rx ry rz
   end
   begin
      id 18
      name RightForeArm
      direction -1.000000 0.000000 0.000000
      length 8.522147
      axis 0.0 0.0 90.0 xyz
      dof ry rz rx
   end
   begin
      id 19
      name RightHand
      direction 0.000000 0.000000 0.000000
      length 0.000000
      axis 0.0 0.0 90.0 xyz
      dof rx ry rz
   end
   begin
      id 20
      name RightHand_dum1
      direction 0.000000 0.000000 0.000000
      length 0.000000
      axis 0.0 0.0 90.0 xyz
   end
   begin
      id 21
      name RightHand_dum2
      direction -1.000000 0.000000 0.000000
      length 3.937000
      axis 0.0 0.0 90.0 xyz
   end
   begin
      id 22
      name RightHandThumb1
      direction 0.000000 0.000000 1.000000
      length 3.937000
      axis 0.0 0.0 90.0 xyz
      dof rx rz ry
   end
   begin
      id 23
      name LeftUpLeg
      direction 0.000000 -1.000000 0.000000
      length 16.490845
      axis 0.0 0.0 0.0 xyz
      dof rx ry rz
   end
   begin
      id 24
      name LeftLeg
      direction 0.000000 -1.000000 0.000000
      length 14.556576
      axis 0.0 0.0 0.0 xyz
      dof rx ry rz
   end
   begin
      id 25
      name LeftFoot
      direction 0.000000 -0.258819 0.965926
      length 4.831116
      axis 15.0 0.0 0.0 xyz
      dof rx ry rz
   end
   begin
      id 26
      name LeftToeBase
      direction 0.000000 0.000000 1.000000
      length 2.952750
      axis 0.0 0.0 0.0 xyz
      dof rx ry rz
   end
   begin
      id 27
      name RightUpLeg
      direction 0.000000 -1.000000 0.000000
      length 16.490845
      axis 0.0 0.0 0.0 xyz
      dof rx ry rz
   end
   begin
      id 28
      name RightLeg
      direction 0.000000 -1.000000 0.000000
      length 14.556576
      axis 0.0 0.0 0.0 xyz
      dof rx ry rz
   end
   begin
      id 29
      name RightFoot
      direction 0.000000 -0.258819 0.965926
      length 4.831116
      axis 15.0 0.0 0.0 xyz
      dof rx ry rz
   end
   begin
      id 30
      name RightToeBase
      direction 0.000000 0.000000 1.000000
      length 2.952750
      axis 0.0 0.0 0.0 xyz
      dof rx ry rz
   end
:hierarchy
   begin
      root Spine_dum LeftUpLeg_dum RightUpLeg_dum
      Spine_dum Spine
      LeftUpLeg_dum LeftUpLeg
      RightUpLeg_dum RightUpLeg
      Spine Spine_dum1 Spine_dum2 Spine_dum3
      Spine_dum1 Head
      Spine_dum2 LeftShoulder
      Spine_dum3 RightShoulder
      LeftShoulder LeftArm
      LeftArm LeftForeArm
      LeftForeArm LeftHand
      LeftHand LeftHand_dum1 LeftHand_dum2
      LeftHand_dum1 LeftHandThumb1
      RightShoulder RightArm
      RightArm RightForeArm
      RightForeArm RightHand
      RightHand RightHand_dum1 RightHand_dum2
      RightHand_dum1 RightHandThumb1
      LeftUpLeg LeftLeg
      LeftLeg LeftFoot
      LeftFoot LeftToeBase
      RightUpLeg RightLeg
      RightLeg RightFoot
      RightFoot RightToeBase
   end

# File created by Blade
# Date/Time:  Wed Sep 24 19:53:44 2014
# Frame Rate: 120.000 fps
#------------------------------------------------------
:FULLY-SPECIFIED
:DEGREES
418
root -6.341836 32.883237 -4.467759 8.085644 -6.470392 -0.995408
Spine -14.984032 -21.034951 7.085112
Head -0.259711 37.263607 2.206924
LeftShoulder 3.353807 -13.678447 38.421795
LeftArm 95.162821 -9.805679 -117.851121
LeftForeArm -51.742485 -0.000000 102.581573
LeftHand -11.398927 -0.000000 -4.538461
LeftHandThumb1 -26.253704 0.000000 33.147579
RightShoulder -17.228084 11.262374 -19.026151
RightArm -10.154560 -31.274929 89.176930
RightForeArm -21.259149 -0.000000 20.653909
RightHand -6.037158 -0.000000 11.373398
RightHandThumb1 -24.326973 -0.000000 -32.862282
LeftUpLeg -0.680697 13.706335 3.992640
LeftLeg -1.949632 -0.000000 0.000000
LeftFoot -10.473052 7.310247 -18.487757
LeftToeBase 11.657856 -0.000000 -0.000000
RightUpLeg -5.637811 -1.822765 -3.508655
RightLeg 2.409012 -0.000000 -0.000000
RightFoot -7.465889 -1.931067 -14.599649
RightToeBase -1.283211 -0.000000 0.000000
419
root -6.342645 32.883012 -4.470052 8.088994 -6.471442 -0.997346
Spine -14.990832 -21.037139 7.089495
Head -0.230453 37.257836 2.224388
LeftShoulder 3.351672 -13.618305 38.409287
LeftArm 95.204008 -9.781758 -117.831997
LeftForeArm -51.694240 -0.000000 102.644546
LeftHand -11.310475 -0.000000 -4.547620
LeftHandThumb1 -26.253704 0.000000 33.147579
RightShoulder -17.209971 11.262711 -19.025754
RightArm -10.149528 -31.299425 89.185020
RightForeArm -21.238935 -0.000000 20.659325
RightHand -6.017725 -0.000000 11.397066
RightHandThumb1 -24.326973 -0.000000 -32.862282
LeftUpLeg -0.687547 13.728393 3.995623
LeftLeg -1.952378 -0.000000 0.000000
LeftFoot -10.449682 7.305231 -18.573869
LeftToeBase 11.578977 -0.000000 -0.000000
RightUpLeg -5.645306 -1.823907 -3.503097
RightLeg 2.411287 -0.000000 -0.000000
RightFoot -7.474849 -1.944811 -14.621753
RightToeBase -1.222270 -0.000000 0.000000
420
root -6.342881 32.882976 -4.471845 8.088245 -6.461706 -0.995460
Spine -14.991309 -21.030101 7.087863
Head -0.191412 37.247856 2.249625
LeftShoulder 3.351248 -13.611578 38.399073
LeftArm 95.198362 -9.774747 -117.809827
LeftForeArm -51.669025 -0.000000 102.703060
LeftHand -11.321548 -0.000000 -4.567982
LeftHandThumb1 -26.253704 0.000000 33.147579
RightShoulder -17.215791 11.266592 -19.030713
RightArm -10.158551 -31.298656 89.197246
RightForeArm -21.253325 -0.000000 20.673601
RightHand -6.006317 -0.000000 11.363974
RightHandThumb1 -24.326973 -0.000000 -32.862282
LeftUpLeg -0.690783 13.708607 3.995774
LeftLeg -1.950812 -0.000000 0.000000
LeftFoot -10.452760 7.323231 -18.539774
LeftToeBase 11.587711 -0.000000 -0.000000
RightUpLeg -5.646115 -1.840476 -3.503159
RightLeg 2.411834 -0.000000 -0.000000
RightFoot -7.476564 -1.932465 -14.594842
RightToeBase -1.224737 -0.000000 0.000000
421
root -6.342973 32.882774 -4.473756 8.094226 -6.467189 -0.993113
Spine -15.000680 -21.016944 7.085864
Head -0.145323 37.242915 2.270872
LeftShoulder 3.349822 -13.577885 38.386615
LeftArm 95.222617 -9.749188 -117.795592
LeftForeArm -51.681008 -0.000000 102.758997
LeftHand -11.411144 -0.000000 -4.588273
LeftHandThumb1 -26.253704 0.000000 33.147579
RightShoulder -17.211887 11.257417 -19.032172
RightArm -10.151854 -31.297735 89.204650
RightForeArm -21.227028 -0.000000 20.680612
RightHand -6.011332 -0.000000 11.336924
RightHandThumb1 -24.326973 -0.000000 -32.862282
LeftUpLeg -0.695636 13.709261 3.991890
LeftLeg -1.958777 -0.000000 0.000000
LeftFoot -10.446481 7.319731 -18.573285
LeftToeBase 11.554928 -0.000000 -0.000000
RightUpLeg -5.655744 -1.834223 -3.504236
RightLeg 2.409642 -0.000000 -0.000000
RightFoot -7.470640 -1.940723 -14.601480
RightToeBase -1.250104 -0.000000 0.000000
